<svg id="Layer_1" data-name="Layer 1" xmlns="http://www.w3.org/2000/svg" viewBox="0 0 666.64 426.67"><defs><style>.cls-10,.cls-11,.cls-12,.cls-13,.cls-14,.cls-15,.cls-16,.cls-17,.cls-18,.cls-19,.cls-2,.cls-20,.cls-24,.cls-29,.cls-30,.cls-32,.cls-5,.cls-6,.cls-7,.cls-8,.cls-9{fill-rule:evenodd}.cls-2{fill:#0a898a}.cls-3,.cls-5{fill:#fff}.cls-6{fill:#000618}.cls-7{fill:#e84a2b}.cls-8{fill:#d43718}.cls-9{fill:#fceadd}.cls-10{fill:#eb6b5d}.cls-11{fill:#f4ad85}.cls-12{fill:#ef8871}.cls-13{fill:#fcd259}.cls-14{fill:#f7b630}.cls-15{fill:#1c6263}.cls-16{fill:#174b56}.cls-17{fill:#5d6378}.cls-18{fill:#01020e}.cls-19{fill:#c6e3f1}.cls-20{fill:#0f1630}.cls-21{fill:#e8685b}.cls-24{fill:#f8cab0}.cls-27{fill:#ea745d}.cls-29{fill:#fadcc2}.cls-30{fill:#e8b79c}.cls-32{fill:#76533e}.cls-37{fill:#384344}</style></defs><path d="M87.47 314.21a34.78 34.78 0 0134.67 34.68 63.45 63.45 0 0063.27 63.27h447.17A82.43 82.43 0 00714.76 330a82.43 82.43 0 00-82.19-82.19h-2.16a16.54 16.54 0 01-16.49-16.49 16.54 16.54 0 0116.49-16.49h9.07a40.21 40.21 0 0040.1-40.09 40.21 40.21 0 00-40-40.09h-39.14a34.78 34.78 0 01-34.67-34.68 63.45 63.45 0 00-63.27-63.3H179.21A82.43 82.43 0 0097 118.85 82.43 82.43 0 00179.21 201a16.54 16.54 0 0116.49 16.49A16.54 16.54 0 01179.21 234H87.47c-52.47 0-52.47 80.21 0 80.21z" transform="translate(-48.12 -36.67)" fill-rule="evenodd" fill="#3bc4c5"/><path class="cls-2" d="M111.68 324.12a34.58 34.58 0 0110.47 24.76 63.45 63.45 0 0063.26 63.27h447.17a81.57 81.57 0 0018.63-2.15v-96.43h-5.94V274a5.25 5.25 0 00-1.72-3.94 5.81 5.81 0 00-4.14-1.63l-26.62.05-.27-110.24a5.72 5.72 0 00-5.81-5.56l-26-.14a5.79 5.79 0 00-4.16 1.62 5.25 5.25 0 00-1.72 3.95v21.63h-29.36v-41.6a5.72 5.72 0 00-5.81-5.56l-13.48-.14a5.79 5.79 0 00-4.16 1.62 5.26 5.26 0 00-1.72 4v89.78h-20.35v-24.67h2.87a2.29 2.29 0 002.33-2.22v-32.76a2.29 2.29 0 00-2.33-2.22h-2.87a2.29 2.29 0 00-2.33 2.22v8.56h-4V157a2.34 2.34 0 00-.78-1.77 2.59 2.59 0 00-1.87-.71l-9 .13a2.55 2.55 0 00-2.56 2.46l-.06 6h-30.2l-.23-8.9a2.55 2.55 0 00-2.6-2.42H414.2a2.55 2.55 0 00-2.6 2.48v21h-13.06v-9.63a2.33 2.33 0 00-.77-1.76 2.56 2.56 0 00-1.85-.72l-11.6.06a2.55 2.55 0 00-2.59 2.48l-.12 51.61h-11.86a2.58 2.58 0 00-1.84.73 2.34 2.34 0 00-.77 1.76v17.62h-9.49v-4.51a2.55 2.55 0 00-2.61-2.48h-5.63a2.58 2.58 0 00-2.56 2v-9.51l-.07-75.68a2.46 2.46 0 00-1.77-2.35l-2.82-.91-.52-.25a21 21 0 01-.08-2.33c0-2.61-.07-5.21-.18-7.83a2.54 2.54 0 00-2.52-2.38l-4.33-.13-.24-11a2.54 2.54 0 00-2.49-2.46l-4.51-.19-.08-18.58a2.55 2.55 0 00-2.59-2.47c-.68 0-1.35 0-2 .06h-.14a39.2 39.2 0 01-.07-4.32c.09-5 .3-10 .4-15.05a2.34 2.34 0 00-.74-1.79 2.57 2.57 0 00-1.86-.74h-38.56a2.55 2.55 0 00-2.6 2.46L279 96.2c-1 0-1.67.22-3.46 1.37a2.38 2.38 0 00-1.14 2v17.89l-4.74.17a2.54 2.54 0 00-2.51 2.48v11l-4.69.15a2.54 2.54 0 00-2.52 2.45l-.12 10.13h-2.34a2.55 2.55 0 00-2.61 2.48L254.61 264h-19.34v-89.08a3.59 3.59 0 00-1.2-3 4.38 4.38 0 00-2.61-.83l-.48-.07v-9.92a2.55 2.55 0 00-2.54-2.49h-4.31A28 28 0 01224 154c0-5.08.23-10.16.29-15.24a33.33 33.33 0 00-.18-5.24 3.68 3.68 0 00-2-3.05l-.16-.07c-.08-.18-.16-.4-.21-.53a20.76 20.76 0 01-.25-4.27 43 43 0 00-.14-4.31 2.56 2.56 0 00-2.64-2.22l-19.21.31a2.62 2.62 0 00-2.22 1.25c0-3.5.1-7-.13-10.48a2.55 2.55 0 00-2.58-2.33l-20.6-.13a2.55 2.55 0 00-2.62 2.46l-.18 19.76-.36.08a7.78 7.78 0 00-3.17 1.64 2.37 2.37 0 00-.94 1.88l-.29 25.17-4.15.35a2.53 2.53 0 00-2.36 2.18l-1.23 10a5.37 5.37 0 00-1.25.57 4.63 4.63 0 00-1.79 3.38 2.17 2.17 0 000 .41v22a81.49 81.49 0 0023.58 3.43 16.54 16.54 0 0116.49 16.49A16.54 16.54 0 01179.21 234h-23.76v25.68h-16.31v-19.42a2.35 2.35 0 00-.77-1.76 2.58 2.58 0 00-1.86-.72l-6.59.22a2.55 2.55 0 00-2.58 2.46l-.14 75-12.9.13a2.55 2.55 0 00-2.57 2.35z" transform="translate(-48.12 -36.67)"/><path class="cls-3" d="M113.68 21.79h5.54a1.85 1.85 0 011.85 1.85v5.54a1.84 1.84 0 01-1.85 1.82h-5.54a1.84 1.84 0 01-1.84-1.84v-5.52a1.85 1.85 0 011.84-1.85zm18.92 0h5.54a1.85 1.85 0 011.86 1.85v5.54a1.84 1.84 0 01-1.87 1.82h-5.53a1.85 1.85 0 01-1.85-1.85v-5.51a1.85 1.85 0 011.85-1.85z"/><path d="M151.51 21.79H157a1.85 1.85 0 011.85 1.85v5.54A1.84 1.84 0 01157 31h-5.54a1.85 1.85 0 01-1.85-1.85v-5.51a1.85 1.85 0 011.9-1.85z" fill="#0a898a"/><path class="cls-3" d="M170.42 21.79H176a1.84 1.84 0 011.84 1.84v5.54A1.84 1.84 0 01176 31h-5.54a1.85 1.85 0 01-1.85-1.85v-5.51a1.85 1.85 0 011.81-1.85zm366.77 313.87h5.54a1.85 1.85 0 011.85 1.85V343a1.84 1.84 0 01-1.84 1.84h-5.54a1.84 1.84 0 01-1.84-1.84v-5.54a1.85 1.85 0 011.83-1.8zm18.91 0h5.54a1.85 1.85 0 011.85 1.85V343a1.84 1.84 0 01-1.84 1.84h-5.55a1.85 1.85 0 01-1.85-1.85v-5.54a1.85 1.85 0 011.85-1.79zm18.9 0h5.54a1.85 1.85 0 011.85 1.85V343a1.84 1.84 0 01-1.84 1.84H575a1.85 1.85 0 01-1.85-1.85v-5.54a1.85 1.85 0 011.85-1.79zm18.93 0h5.54a1.84 1.84 0 011.84 1.84v5.5a1.84 1.84 0 01-1.84 1.84h-5.54a1.85 1.85 0 01-1.85-1.85v-5.54a1.85 1.85 0 011.85-1.79z"/><path class="cls-5" d="M459.46 175.09h-19.24a1.63 1.63 0 01-1.62-1.62 1.63 1.63 0 011.62-1.62h19.24a1.62 1.62 0 011.62 1.62 1.62 1.62 0 01-1.62 1.62zm0-6.7h-11.67a1.63 1.63 0 01-1.62-1.62 1.63 1.63 0 011.62-1.62h11.67a1.62 1.62 0 011.62 1.62 1.62 1.62 0 01-1.62 1.62zM167.61 373.51h-19.24a1.62 1.62 0 01-1.62-1.62 1.62 1.62 0 011.62-1.62h19.23a1.62 1.62 0 011.62 1.62 1.63 1.63 0 01-1.61 1.62zm0-6.7h-11.67a1.63 1.63 0 01-1.62-1.62 1.63 1.63 0 011.62-1.62h11.67a1.63 1.63 0 011.62 1.62 1.63 1.63 0 01-1.62 1.62zM279 145.84h19.23a1.63 1.63 0 011.62 1.62 1.63 1.63 0 01-1.62 1.62H279a1.63 1.63 0 01-1.62-1.62 1.63 1.63 0 011.62-1.62zm0 6.7h11.67a1.63 1.63 0 011.62 1.62 1.63 1.63 0 01-1.62 1.62H279a1.63 1.63 0 01-1.62-1.62 1.63 1.63 0 011.62-1.62z" transform="translate(-48.12 -36.67)"/><path class="cls-2" d="M462.93 64.4a1 1 0 012 0v4.4a1 1 0 11-2 0v-4.4zm-6.67 3.6a1 1 0 011.38-1.38l3.11 3.11a1 1 0 01-1.38 1.38L456.26 68zm-2.19 7.24a1 1 0 010-2h4.4a1 1 0 010 2zm3.57 6.67a1 1 0 11-1.38-1.38l3.11-3.11a1 1 0 011.38 1.38l-3.11 3.11zm7.24 2.19a1 1 0 01-2 0v-4.4a1 1 0 112 0v4.4zm6.67-3.57a1 1 0 01-1.38 1.38l-3.11-3.11a1 1 0 011.38-1.38l3.11 3.11zm2.19-7.24a1 1 0 110 2h-4.4a1 1 0 010-2zm-3.57-6.67a1 1 0 011.38 1.38l-3.11 3.11a1 1 0 01-1.38-1.38z" transform="translate(-48.12 -36.67)"/><path class="cls-5" d="M445.67 126.25v2.13h2.14a1.63 1.63 0 011.62 1.62 1.63 1.63 0 01-1.62 1.62h-2.14v2.13a1.62 1.62 0 01-1.62 1.62 1.62 1.62 0 01-1.62-1.62v-2.13h-2.13a1.63 1.63 0 01-1.62-1.62 1.63 1.63 0 011.62-1.62h2.14v-2.13a1.62 1.62 0 011.62-1.62 1.62 1.62 0 011.61 1.62z" transform="translate(-48.12 -36.67)"/><path class="cls-2" d="M124.17 121.7a1 1 0 112 0v4.4a1 1 0 11-2 0v-4.4zm-6.67 3.57a1 1 0 111.38-1.38L122 127a1 1 0 11-1.38 1.38l-3.11-3.11zm-2.19 7.24a1 1 0 010-2h4.4a1 1 0 110 2zm3.57 6.67a1 1 0 11-1.38-1.38l3.11-3.11a1 1 0 011.38 1.38l-3.11 3.11zm7.24 2.19a1 1 0 11-2 0V137a1 1 0 112 0v4.4zm6.67-3.57a1 1 0 11-1.38 1.38l-3.11-3.11a1 1 0 011.38-1.38l3.11 3.11zm2.19-7.24a1 1 0 010 2h-4.4a1 1 0 110-2zm-3.57-6.67a1 1 0 111.38 1.38l-3.11 3.11a1 1 0 01-1.38-1.38z" transform="translate(-48.12 -36.67)"/><path class="cls-5" d="M92.64 267.4v2.13h2.13a1.63 1.63 0 011.62 1.62 1.62 1.62 0 01-1.62 1.62h-2.13v2.14a1.63 1.63 0 01-1.64 1.62 1.63 1.63 0 01-1.62-1.62v-2.14h-2.11a1.62 1.62 0 01-1.62-1.62 1.63 1.63 0 011.62-1.62h2.13v-2.13a1.62 1.62 0 011.6-1.62 1.62 1.62 0 011.64 1.62zm62.25-180.24v2.14H157a1.62 1.62 0 011.62 1.62 1.63 1.63 0 01-1.62 1.61h-2.13v2.14a1.63 1.63 0 01-1.62 1.62 1.63 1.63 0 01-1.62-1.62v-2.14h-2.14a1.63 1.63 0 01-1.62-1.62 1.62 1.62 0 011.62-1.62h2.14v-2.13a1.62 1.62 0 011.62-1.62 1.62 1.62 0 011.64 1.62zm194.5-38.9v2.13h2.14a1.63 1.63 0 011.62 1.61 1.63 1.63 0 01-1.62 1.62h-2.14v2.13a1.62 1.62 0 01-1.62 1.62 1.63 1.63 0 01-1.62-1.62v-2.12H344a1.63 1.63 0 01-1.6-1.63 1.63 1.63 0 011.6-1.61h2.14v-2.13a1.63 1.63 0 011.62-1.62 1.62 1.62 0 011.63 1.62zM674.41 283.8v2.13h2.13a1.63 1.63 0 011.62 1.62 1.63 1.63 0 01-1.62 1.62h-2.13v2.13a1.63 1.63 0 01-1.62 1.62 1.63 1.63 0 01-1.62-1.62v-2.13H669a1.63 1.63 0 01-1.62-1.62 1.63 1.63 0 011.62-1.62h2.13v-2.13a1.62 1.62 0 011.62-1.62 1.62 1.62 0 011.66 1.62zM572 193v2.13h2.13a1.63 1.63 0 011.62 1.62 1.62 1.62 0 01-1.62 1.62H572v2.13a1.63 1.63 0 01-1.62 1.62 1.63 1.63 0 01-1.62-1.62v-2.13h-2.13a1.63 1.63 0 01-1.62-1.62 1.63 1.63 0 011.62-1.62h2.13V193a1.63 1.63 0 011.62-1.62A1.63 1.63 0 01572 193z" transform="translate(-48.12 -36.67)"/><path class="cls-2" d="M643.17 164.25a1 1 0 012 0v4.4a1 1 0 11-2 0v-4.4zm-6.67 3.57a1 1 0 111.38-1.38l3.11 3.11a1 1 0 11-1.38 1.38l-3.11-3.11zm-2.19 7.24a1 1 0 010-2h4.4a1 1 0 010 2zm3.57 6.67a1 1 0 11-1.38-1.38l3.11-3.11a1 1 0 011.38 1.38l-3.11 3.11zm7.24 2.19a1 1 0 11-2 0v-4.4a1 1 0 112 0v4.4zm6.67-3.57a1 1 0 01-1.38 1.38l-3.11-3.11a1 1 0 011.38-1.38l3.11 3.11zm2.19-7.24a1 1 0 010 2h-4.4a1 1 0 010-2zm-3.57-6.67a1 1 0 011.38 1.38l-3.11 3.11a1 1 0 11-1.38-1.38zm29.96 175.7a1 1 0 112 0v4.4a1 1 0 01-2 0v-4.4zm-6.67 3.57a1 1 0 011.38-1.38l3.11 3.11a1 1 0 11-1.38 1.38l-3.11-3.11zm-2.19 7.29a1 1 0 010-2h4.4a1 1 0 010 2zm3.58 6.67a1 1 0 01-1.38-1.38l3.11-3.11a1 1 0 111.38 1.38l-3.11 3.11zm7.24 2.19a1 1 0 01-2 0v-4.4a1 1 0 112 0v4.4zm6.67-3.58a1 1 0 11-1.38 1.38l-3.11-3.11a1 1 0 011.38-1.38l3.11 3.11zm2.19-7.24a1 1 0 010 2h-4.4a1 1 0 110-2zm-3.58-6.67a1 1 0 111.38 1.38l-3.11 3.11a1 1 0 01-1.38-1.38z" transform="translate(-48.12 -36.67)"/><path class="cls-6" d="M573.73 142a.71.71 0 111.31-.54c0 .08 11.53 27.35-8.42 43.27a.71.71 0 11-.88-1.11c19.11-15.2 8.02-41.51 7.99-41.62zm-86.85 47.66a.71.71 0 111 1c-.1.11-35.27 38.22-17.82 67.08a.71.71 0 11-1.21.73c-17.95-29.81 17.93-68.7 18.03-68.81z" transform="translate(-48.12 -36.67)"/><path class="cls-7" d="M551.15 230.69s11.38 2 18.08 7 26.9 58 28.22 60.17a5.32 5.32 0 01.17 2.31s-15.7 6.34-24.87 20.07a5.05 5.05 0 01-5.28-2.94c-1.53-3.55-16.32-86.61-16.32-86.61z" transform="translate(-48.12 -36.67)"/><path class="cls-8" d="M551.15 230.69s11.38 2 18.08 7a5.14 5.14 0 01.6.53 12.93 12.93 0 00.2 6.66c1.43 4.08 17.86 40.92 19.19 44.39.8 2.09 3.67 2.73 5.83 2.92 1.3 3.18 2.17 5.27 2.41 5.67a5.32 5.32 0 01.17 2.31s-15.7 6.34-24.87 20.07a5.05 5.05 0 01-5.28-2.94c-1.54-3.55-16.33-86.61-16.33-86.61z" transform="translate(-48.12 -36.67)"/><path class="cls-7" d="M538.74 234.2l6.48-3.51h5.93c1.7 0 10.43 5 13.06 8.29s15.81 30.74 16.25 38.65-5.04 22.84-7.46 35.37-4.83 27.23-4.83 27.23-.66 4.5-2.63 5.27a79.31 79.31 0 01-19.33 3.4c-8.34.33-54.57-1.76-56.66-2.41s-1-1.1-1.75-7.14-3.41-29.21-4.28-32.72-4.27-17.63-4.27-17.63 5-38.57-3.64-55.49c5.33-4.05 24.71-2.55 32.17-2.69z" transform="translate(-48.12 -36.67)"/><path class="cls-8" d="M580.47 277.63c.31 5.51-2.27 14.43-4.67 23.56-3.43-2-8.77-3.72-16.79-3.07-17.55 1.43-38 3.27-42.66 3.67s-18.35 12.32-7.34 46c-10.17-.49-18.59-1-19.46-1.28-2.09-.66-1-1.1-1.75-7.14s-3.41-29.21-4.28-32.72-4.27-17.65-4.27-17.65 5-38.57-3.64-55.49c5.33-4.05 24.71-2.55 32.17-2.69l7.41.81.34 1.2s-18.78 8-20.41 11.22 4.9 25.31 6.33 29 13.73 15.11 79.02 4.58z" transform="translate(-48.12 -36.67)"/><path class="cls-9" d="M502.7 238.83a23.11 23.11 0 01-2.52-6.11 7.84 7.84 0 01-.24-2c3.12.06 5.89.13 7.84.1l7.41.81.34 1.2s-7 2.94-12.83 6z" transform="translate(-48.12 -36.67)"/><path class="cls-10" d="M543.19 212.79v13.67c0 3.18 1.54 4.23 2 4.23 0 0 .44 14.6-12.63 15s-22.84-7.14-24.82-14.93c0 0 3.84-1.1 3.84-6.48v-22.91z" transform="translate(-48.12 -36.67)"/><path class="cls-11" d="M441 278l-4.85 2.25s-18.4 26.85-22.15 33.44-2.64 18.89 9.22 31.63 43 38.54 43 38.54 6.84-7.91 8.16-12.19v-2.37s-31.78-39.09-32.22-40.63-1-2.86.33-4.83S463 302.66 463 302.66s7-13.73-22-24.66z" transform="translate(-48.12 -36.67)"/><path class="cls-12" d="M412.14 320.53c-.38 6.74 2.59 15.65 11.1 24.78 11.86 12.74 43 38.54 43 38.54s1.34-1.55 3-3.65c-10.15-7.2-47.55-37.33-57.1-59.67zM441 278l-4.85 2.25-2 2.9c5.83 4 16 11.4 16.82 15.76 1 5.07-10 18.66-9.08 26.16a5.34 5.34 0 01.62-1.23c1.32-2 20.49-21.19 20.49-21.19s7-13.72-22-24.65z" transform="translate(-48.12 -36.67)"/><path class="cls-5" d="M534.18 245.6c1.68-1.57 11-14.91 11-14.91s-2-.09-2-3.32c0 0 5.14 3 5.63 3.32s.49 23.37-1.14 24.51c0 0-.57.61-1.84.08s-11.65-9.68-11.65-9.68zm0 0s-5.88 15-8 15.68-20.88-30.48-20.88-30.48l4.91-4 .9 2.86z" transform="translate(-48.12 -36.67)"/><path class="cls-13" d="M475.61 233.49s-9.82 6.86-11.14 8.18S436 278.61 435.7 279a1.08 1.08 0 00-.17.93c12.89 6.48 20.77 18.83 27.12 27.84.86 1.23 16.6-18.77 16.6-18.77s11.52-40.2-3.64-55.51z" transform="translate(-48.12 -36.67)"/><path class="cls-14" d="M475.61 233.49s-1.46 1-3.33 2.35c.84 8.25 2 23.83 0 32.69-1.81 7.88-13.69 17.08-22.16 22.76 5 5.47 9 11.49 12.56 16.48.83 1.23 16.57-18.77 16.57-18.77s11.52-40.2-3.64-55.51z" transform="translate(-48.12 -36.67)"/><path class="cls-15" d="M566.2 348.5l.63 1.17s17.76 53.29 19.08 64.05-53.37 15.37-58 15.81-55.34-5.71-56.44-7.25-4.39-10.76-4.39-12.3 11.42-41.4 12.19-44.47 7.25-15.29 7.25-15.29z" transform="translate(-48.12 -36.67)"/><path class="cls-16" d="M566.2 348.5l.63 1.17s2.19 6.57 5.09 15.57c-3.84-2.89-7.9-5.61-9.85-5.89-4.29-.61-44.9 5.72-48.58 5.92s-16.12 35.54-13.06 50.12c1.57 7.47-14.56 6.18-30.65 3.15-1.28-3.27-2.68-7.54-2.68-8.54 0-1.54 11.42-41.4 12.19-44.47s7.25-15.29 7.25-15.29l79.65-1.73zm-1.67 72.89s-9.19-31-11.43-34.29 4.9 29.19 4.69 32.66 6.74 1.64 6.74 1.64z" transform="translate(-48.12 -36.67)"/><path class="cls-6" d="M568.27 338.44s-27.77 7.14-80.48-.29c0 0-1.32.63-1.53 1.33a44.67 44.67 0 00-1 7.05 10 10 0 001.15 4.13c.77 1.14 38.1 7.37 58.09 4.07s22-3.56 22.73-5.21 1.76-8.57 1.76-9.72-.72-1.36-.72-1.36z" transform="translate(-48.12 -36.67)"/><path class="cls-11" d="M595.54 298.85l2.16 1.67 1.07 2.1 13.43-39.12 19.65 6.74s-14.71 69.21-16.9 72.5-9.66 9.66-18.67 7.91-23.86-31.1-23.86-31.1-.3-21.82 23.12-20.7z" transform="translate(-48.12 -36.67)"/><path class="cls-12" d="M598.77 302.62l13.43-39.12 19.65 6.74s-2.69 12.67-5.95 27.43c0 0-.35-13.13-1.07-15.78s-13.57 1.94-15 5.2-14.9 30.51-16.23 32 5.17-16.52 5.17-16.52zm19.14 29.85c-4.07 17-19.31 11.56-20.53 10.34s-11.23-6.53-15.31-21.84a25.73 25.73 0 013.08-20.8c-12.94 4.63-12.74 19.37-12.74 19.37s14.86 29.34 23.86 31.1 16.47-4.61 18.67-7.91c.49-.73 1.57-4.61 2.98-10.26z" transform="translate(-48.12 -36.67)"/><path class="cls-12" d="M603.52 246l-2.23 1.07a18.91 18.91 0 00.53 2.91c.44 1.74.45 3.62.68 7.52s.09 6 3.48 10.08 10.83 9.51 12.34 9.91 5 .45 8.84-2.69 10.34-8.76 13.62-11.52a34 34 0 004.71-4.63l-4.5-4.3s-1.82 1-2.61.58.83-2.33.83-2.33v-10s-.45.19-.55-.2 2.76-3.73 3-4.6z" transform="translate(-48.12 -36.67)"/><path class="cls-11" d="M629.59 223.64s2.74-1.75 3.69-1.55 4.08 2.44 4 4-1.41 7.39-5.1 8.65-2.59-11.1-2.59-11.1z" transform="translate(-48.12 -36.67)"/><path class="cls-17" d="M603.37 223.66a.42.42 0 00-.39.44l.5 8.74a.42.42 0 00.44.4.42.42 0 00.4-.44l-.5-8.74a.42.42 0 00-.45-.4zm.63 10.53a.42.42 0 00-.4.44l.2 3.47a.42.42 0 00.44.4.42.42 0 00.4-.44l-.2-3.47a.42.42 0 00-.44-.4zm.26 5.06a.42.42 0 00-.39.44l.2 3.47a.42.42 0 00.44.4.42.42 0 00.4-.44l-.2-3.47a.42.42 0 00-.45-.4z" transform="translate(-48.12 -36.67)"/><path class="cls-18" d="M606.79 216.79l23.49-1.35a3.82 3.82 0 014 3.58l2.87 50.06a3.82 3.82 0 01-3.58 4l-23.49 1.34a3.81 3.81 0 01-4-3.58l-2.87-50.06a3.82 3.82 0 013.58-3.99z" transform="translate(-48.12 -36.67)"/><path class="cls-19" d="M606.41 221.22l24.74-1.42a1.67 1.67 0 011.76 1.57l2.47 43.1a1.67 1.67 0 01-1.56 1.76l-24.74 1.42a1.67 1.67 0 01-1.76-1.57L604.85 223a1.67 1.67 0 011.56-1.78z" transform="translate(-48.12 -36.67)"/><path class="cls-20" d="M616.4 269.47l10.33-.59a1.13 1.13 0 011.19 1.06 1.13 1.13 0 01-1.06 1.19l-10.33.59a1.13 1.13 0 01-1.19-1.06 1.13 1.13 0 011.06-1.19zm-.93-51.18l6.34-.36a.69.69 0 01.73.65.69.69 0 01-.65.73l-6.34.36a.69.69 0 01-.73-.65.69.69 0 01.65-.73z" transform="translate(-48.12 -36.67)"/><path class="cls-11" d="M604.19 242.8s4.38.08 5.34.48 1.58 2 1.23 5.19-2.91 3.28-5.13 3.1-4.23-3-4.33-4.48 1.11-4.42 2.89-4.29zm32.46-10.33s-3.1 1.84-3.72 2.91a4.19 4.19 0 003.59 5.9 8.34 8.34 0 004.54-2.43c.62-.88 1.4-1.8.56-3.32s-3.33-4.06-4.97-3.06zm-4.24 15.81s6.3-5.39 7.21-5.88a2.51 2.51 0 013.15.91c.63 1.12 1.68 2.63.65 4.64s-5.81 6.27-6.86 6.75a4 4 0 01-4-.86c-.77-.99-1.85-4.03-.15-5.56zm2.06 10.15s7.33-4.6 8-5a2.47 2.47 0 013 1.1c.78 1.3 1.05 3.08 0 4.11s-7.36 4.83-8.46 5-2.19-.88-2.59-2-.69-2.58.05-3.21z" transform="translate(-48.12 -36.67)"/><path class="cls-18" d="M484.88 168.79s7.11 17.53-3.24 31.28-14.89 27.55-5.62 45.35 2.89 27.71 2.72 29.7 4.07 2.62 6.36-2.38c8.06 21 43.4 22.59 36-11.68 0-.08-.08-.22 0-.24s.19.11.29.15c8.49 4.4 11.45-6.27-1.76-19.6-16-16.14-4.44-29.87 2.29-40.1 8.26-12.54 10.79-43.54-37.04-32.48z" transform="translate(-48.12 -36.67)"/><path class="cls-6" d="M482.6 198.72c-.3.45-.62.91-1 1.35-10.35 13.75-14.9 27.55-5.62 45.35s2.89 27.71 2.72 29.7 4.07 2.62 6.36-2.38c5.25 13.65 22.08 19.1 31.13 11.76 10-13.31-4.64-28.73-19-42.09s-13.64-26.9-12.6-33.43 1.91-10.38.54-11-2.57.76-2.57.76z" transform="translate(-48.12 -36.67)"/><path class="cls-10" d="M493 173.7l-.76.1a10.26 10.26 0 108.47 2.4c.14 3-.49 6.76-4.37 7l.35-5.91a3.53 3.53 0 00-3.69-3.59zm70.24 2.79l.75.16a10.26 10.26 0 11-8.64 1.72c-.38 3 0 6.78 3.8 7.31l.12-5.91a3.52 3.52 0 013.97-3.28z" transform="translate(-48.12 -36.67)"/><path class="cls-11" d="M532 124a35.22 35.22 0 00-36.49 33.69l-1.27 31.92A35.22 35.22 0 00528 226.07a35.22 35.22 0 0036.49-33.69l1.27-31.92A35.22 35.22 0 00532 124z" transform="translate(-48.12 -36.67)"/><path class="cls-12" d="M507.3 132.87a35 35 0 00-11.76 24.79l-1.27 31.92A35.22 35.22 0 00528 226.07c-26.61-3.54-23.89-38.38-21-50s10.17-12 10.17-12l13.46-.43 12-3.74s9.29-21.59 10.15-28.09a35.43 35.43 0 00-3.27-2.36c-8.76-.52-32.41 3.03-42.21 3.42z" transform="translate(-48.12 -36.67)"/><path class="cls-6" d="M562.87 177s-.09 2.35-.18 4.52.34 4.63 2 4.7l.2-4.94c0-.92 1.45-3.41 3.67-2.06 27.08-45.49-14.64-80.12-50.37-69.77-5.6 1.62-11.67 10.78-11.67 10.78s-4.53-4.38-9-2.37-20.11 28.9-20.39 35.77 12.48 21 12.48 21c4.5.18 5.06 3.85 5.06 3.85l-.2 4.94c1.67.07 3.79-2.28 3.87-4.46s.18-4.52.18-4.52c14.11-5.61 19.24-23.9 19.24-23.9s22.35 28.84 45.11 26.46z" transform="translate(-48.12 -36.67)"/><circle class="cls-21" cx="554.64" cy="196.87" r="4.62" transform="rotate(-1.79 -642.484 1719.04)"/><circle class="cls-21" cx="514.89" cy="198.11" r="4.62" transform="rotate(-1.79 -682.197 1720.02)"/><path class="cls-18" d="M524 172.29a1.4 1.4 0 01-1.46 2.39 9.15 9.15 0 00-8.25-.48 1.4 1.4 0 11-1.19-2.54 12.09 12.09 0 0110.9.63z" transform="translate(-48.12 -36.67)"/><path d="M557.49 170.4a1.4 1.4 0 01-1.07 2.58 9.14 9.14 0 00-8.23.79 1.4 1.4 0 01-1.57-2.33c5.2-3.5 10.85-1.04 10.87-1.04z" transform="translate(-48.12 -36.67)" fill-rule="evenodd"/><path class="cls-18" d="M526.48 199a9.42 9.42 0 1018.85-.07 1.63 1.63 0 00-1.63-1.62l-15.56.06a1.63 1.63 0 00-1.64 1.63z" transform="translate(-48.12 -36.67)"/><path d="M530 206.3a9.43 9.43 0 0010.9.62 5.87 5.87 0 00-5.4-3.46 6 6 0 00-5.5 2.84z" transform="translate(-48.12 -36.67)" fill="#d64341" fill-rule="evenodd"/><path class="cls-5" d="M543.15 197.29l-14.63.05c-.23 1.62.53 3.25 1.62 3.6 1.33.43 11.91.11 12.65-.72.37-.4.41-1.7.36-2.93z" transform="translate(-48.12 -36.67)"/><path class="cls-20" d="M510.56 115.08c4 13.67 12.68 33.36 30.83 39.74 13.75 4.84 26.34 2.66 35.73-.93a41.09 41.09 0 00-4.19-21.69c-14.21 6.86-44.34 16-60.75-18.8-.57.6-1.11 1.12-1.62 1.68z" transform="translate(-48.12 -36.67)"/><path class="cls-24" d="M538.66 188.35s-.63 3.95 0 5.79a1.77 1.77 0 003.4-.74c-.12-2-2-5-2.37-5.35s-1.04-.27-1.03.3z" transform="translate(-48.12 -36.67)"/><path class="cls-18" d="M562.87 177s-.09 2.35-.18 4.52.34 4.63 2 4.7l.2-4.94c0-.92 1.45-3.41 3.67-2.06a62 62 0 007.66-19c-37.06 16-59.16-14.72-59.16-14.72-24.63 25.73-39.68 9.85-39.76 9.77 1.4 7.25 12.34 19.37 12.34 19.37 4.5.18 5.06 3.85 5.06 3.85l-.2 4.94c1.67.07 3.79-2.28 3.88-4.46l.18-4.52c14.11-5.61 19.24-23.9 19.24-23.9s22.31 28.83 45.07 26.45z" transform="translate(-48.12 -36.67)"/><path class="cls-18" d="M556.12 184.41a3 3 0 00-6 .71 1.2 1.2 0 11-2.39.28 5.41 5.41 0 0110.12-3.23.89.89 0 00.71-.23.34.34 0 11.48.5 1.51 1.51 0 01-.88.41 1.62 1.62 0 001-.23.34.34 0 01.37.58 2.26 2.26 0 01-1.19.34 2.12 2.12 0 001.09 0 .34.34 0 11.16.67 2.75 2.75 0 01-1.14 0 1.2 1.2 0 01-2.4.12zm-38.68 1.03a3 3 0 116-.28 1.2 1.2 0 002.41-.11 5.41 5.41 0 00-10.52-1.53.88.88 0 01-.74-.11.35.35 0 10-.39.57 1.5 1.5 0 00.93.26 1.61 1.61 0 01-1.05-.06.34.34 0 10-.27.64 2.24 2.24 0 001.19.18 2.15 2.15 0 01-1.07.2.34.34 0 100 .69 2.76 2.76 0 001.13-.15 1.2 1.2 0 002.39-.28z" transform="translate(-48.12 -36.67)"/><path class="cls-11" d="M462.51 380.54c4.63 3.54 7.36 11.17 15.53 1.91s10.08-12.54 10.08-12.54 4.29.14 5.11.14 1.91-2.18.55-3.27-.88-.27-.88-.27c3.91-1.81 1.84-3.8.68-5 0 0 2.45-.68 2.18-2.32s-2.86-1.91-2.86-1.91 2.66-.68 1.29-2.59c-.46-.65-4.55-1.16-7.42-1.15-2.3 0-3.38.23-4.45 1.88l-8.9 13.71-3.81-3.54z" transform="translate(-48.12 -36.67)"/><path class="cls-12" d="M484.7 368s-5.34 8.14-9.43 11.94c-1.46 1.35-2.76 2.15-3.6 1.83a18.07 18.07 0 01-2.43-1.56c-1.25-.88-2.9-2.11-4.86-3.62l-1.87 4a20.23 20.23 0 012.13 2c2.63 2.7 5 5.67 8.85 3.78a15.61 15.61 0 004.55-3.82c8.18-9.27 10.08-12.54 10.08-12.54s4.29.14 5.11.14c.54 0 1.2-.95 1.19-1.91a7 7 0 01-1.49.11c-2.21-.23-8.23-.35-8.23-.35z" transform="translate(-48.12 -36.67)"/><path d="M623.34 248.76a2.07 2.07 0 01-2.92.14l-3.07-2.79a2.07 2.07 0 112.78-3.06l1.54 1.4 3.85-4.24a7.55 7.55 0 102.5 3.41z" transform="translate(-48.12 -36.67)" fill="#4caf50"/><path class="cls-3" d="M621.85 248.06a.69.69 0 01-.5-.18l-3.07-2.79a.69.69 0 11.93-1l2.56 2.32 6.59-7.25a.69.69 0 111 .93l-7.05 7.76a.69.69 0 01-.46.21z" transform="translate(-48.12 -36.67)"/><path class="cls-6" d="M171.82 183.78a.71.71 0 00-1.31-.54c0 .08-11.53 27.35 8.42 43.27a.71.71 0 00.88-1.11c-19.11-15.24-8.02-41.55-7.99-41.62z" transform="translate(-48.12 -36.67)"/><path class="cls-6" d="M243.93 147.42l13.89 10.76a47.44 47.44 0 00-1 23.69c2.82 12.84 59 76.92-21.66 90.67S192 236.85 192 236.85s-28.09-4-21.41-44.8 73.34-44.63 73.34-44.63z" transform="translate(-48.12 -36.67)"/><path class="cls-18" d="M191.42 237.7c.38-.55.62-.85.62-.85a17.72 17.72 0 01-2.6-.65 73.38 73.38 0 01-8.48-7.89c-14-15.16-6.4-40.7-6.4-40.7l5.9-2.95s11.61-6.6 14.74-8.3 42-6 56.5 12.59 7.56 50.48 7.56 50.48-45.59 6.48-48.21 6.74c-1.96.21-9.93-1.39-19.63-8.47z" transform="translate(-48.12 -36.67)"/><path class="cls-6" d="M253.48 175.65a.71.71 0 10-1 1c.1.11 35.26 38.22 17.81 67.08a.71.71 0 001.21.73c17.96-29.82-17.92-68.7-18.02-68.81z" transform="translate(-48.12 -36.67)"/><path class="cls-13" d="M189.21 230.69s-11.38 2-18.08 7-26.9 58-28.22 60.17a5.34 5.34 0 00-.16 2.31s15.7 6.34 24.86 20.07a5.05 5.05 0 005.28-2.94c1.53-3.55 16.32-86.61 16.32-86.61z" transform="translate(-48.12 -36.67)"/><path class="cls-14" d="M189.21 230.69s-11.38 2-18.08 7a5.06 5.06 0 00-.6.53 12.92 12.92 0 01-.2 6.66c-1.43 4.08-17.86 40.92-19.19 44.39-.8 2.09-3.67 2.73-5.83 2.92-1.3 3.18-2.17 5.27-2.41 5.67a5.34 5.34 0 00-.16 2.31s15.7 6.34 24.86 20.07a5.05 5.05 0 005.28-2.94c1.54-3.55 16.33-86.61 16.33-86.61z" transform="translate(-48.12 -36.67)"/><path class="cls-13" d="M201.61 234.2l-6.48-3.51h-5.93c-1.7 0-10.43 5-13.07 8.29s-15.81 30.74-16.25 38.65 5.05 22.84 7.47 35.36 4.83 27.23 4.83 27.23.66 4.5 2.63 5.27a79.36 79.36 0 0019.33 3.4c8.34.33 54.57-1.76 56.66-2.41s1-1.1 1.75-7.14 3.4-29.21 4.28-32.72 4.28-17.62 4.28-17.62-5-38.57 3.64-55.49c-5.33-4.05-24.72-2.55-32.17-2.69z" transform="translate(-48.12 -36.67)"/><path class="cls-14" d="M159.89 277.63c-.31 5.51 2.27 14.43 4.67 23.56 3.43-2 8.76-3.72 16.79-3.07 17.55 1.43 38 3.27 42.66 3.67s18.35 12.32 7.34 46c10.17-.49 18.59-1 19.46-1.28 2.09-.66 1-1.1 1.75-7.14s3.4-29.21 4.28-32.72 4.27-17.65 4.27-17.65-5-38.57 3.64-55.49c-5.33-4.05-24.72-2.55-32.17-2.69l-7.41.81-.34 1.2s18.78 8 20.41 11.22-4.9 25.31-6.33 29-13.74 15.11-79.02 4.58z" transform="translate(-48.12 -36.67)"/><path class="cls-5" d="M201.61 234.2l-6.48-3.51h-5.93a6 6 0 00-1.91.61 28 28 0 002 9.77c3.2 7.76 9.8 12.22 18.2 12.5 13.46.45 29.13-6.85 32.68-20.84a7.83 7.83 0 00.24-2c-3.12.06-5.89.13-7.84.1z" transform="translate(-48.12 -36.67)"/><path class="cls-9" d="M237.65 238.83a23.05 23.05 0 002.52-6.11 7.83 7.83 0 00.24-2c-3.12.06-5.89.13-7.84.1l-7.41.81-.34 1.2s7.01 2.94 12.83 6z" transform="translate(-48.12 -36.67)"/><path class="cls-10" d="M197.17 212.79v13.67c0 3.18-1.54 4.23-2 4.23 0 0-.44 14.6 12.63 15s22.84-7.14 24.82-14.93c0 0-3.84-1.1-3.84-6.48v-22.91z" transform="translate(-48.12 -36.67)"/><path class="cls-11" d="M299.33 278l4.85 2.25s18.42 26.85 22.16 33.44 4.6 20.36-7.26 33.1-47 37.07-47 37.07-4.87-7.91-6.19-12.19c5.64-7.75 33.78-34.7 34.68-37.82.44-1.54 1-2.86-.33-4.83s-22.95-26.35-22.95-26.35-6.9-13.74 22.04-24.67z" transform="translate(-48.12 -36.67)"/><path class="cls-13" d="M264.75 233.49s9.82 6.86 11.14 8.18 28.44 36.95 28.77 37.33a1.09 1.09 0 01.16.93c-12.89 6.48-20.77 18.83-27.12 27.84-.85 1.23-16.59-18.77-16.59-18.77s-11.52-40.2 3.64-55.51z" transform="translate(-48.12 -36.67)"/><path class="cls-14" d="M264.75 233.49l3.33 2.35c-.84 8.25-2 23.83 0 32.69 1.81 7.88 13.69 17.08 22.16 22.76-5 5.47-9 11.49-12.55 16.48-.84 1.23-16.58-18.77-16.58-18.77s-11.52-40.2 3.64-55.51z" transform="translate(-48.12 -36.67)"/><path class="cls-15" d="M174.15 348.5l-.63 1.17s-17.76 53.33-19.08 64.06 53.37 15.37 58 15.81 55.34-5.71 56.44-7.25 4.39-10.76 4.39-12.3-11.42-41.4-12.19-44.47-7.26-15.29-7.26-15.29z" transform="translate(-48.12 -36.67)"/><path class="cls-16" d="M174.15 348.5l-.63 1.17s-2.19 6.57-5.09 15.57c3.85-2.89 7.9-5.61 9.85-5.89 4.29-.61 44.9 5.72 48.58 5.92s16.12 35.54 13.06 50.12c-1.57 7.47 14.56 6.18 30.66 3.15 1.28-3.27 2.68-7.54 2.68-8.54 0-1.54-11.42-41.4-12.19-44.47s-7.26-15.29-7.26-15.29l-79.65-1.73zm1.68 72.89s9.19-31 11.43-34.29-4.9 29.19-4.69 32.66-6.74 1.64-6.74 1.64z" transform="translate(-48.12 -36.67)"/><path d="M173.74 172.52l-.76.16a10.46 10.46 0 108.81 1.74c.39 3.07.06 6.91-3.86 7.46l-.13-6a3.6 3.6 0 00-4.06-3.36zm75.67-1.28l.77.1a10.46 10.46 0 11-8.64 2.46c-.14 3.1.51 6.9 4.46 7.12l-.36-6a3.6 3.6 0 013.77-3.68z" transform="translate(-48.12 -36.67)" fill="#ea745d" fill-rule="evenodd"/><path class="cls-11" d="M207.63 120a35.93 35.93 0 00-34.32 37.26l1.34 32.55a35.92 35.92 0 0037.26 34.32 35.92 35.92 0 0034.31-37.26l-1.34-32.55A35.92 35.92 0 00207.63 120z" transform="translate(-48.12 -36.67)"/><path class="cls-12" d="M207.63 120a35.94 35.94 0 00-34.32 34.24 14.92 14.92 0 002.52 4.89l16.17-3.85s14.29 18.63 37.2 19.72c6.16.3 9.06 5.95 8.84 11.83-.53 14.33-8.92 36.2-39.18 35.3a35.47 35.47 0 0013 1.9 35.92 35.92 0 0034.31-37.26l-1.34-32.55a35.92 35.92 0 00-37.2-34.22z" transform="translate(-48.12 -36.67)"/><circle class="cls-27" cx="226.4" cy="193.65" r="4.71" transform="rotate(-1.25 -1478.192 2380.862)"/><circle class="cls-27" cx="187.32" cy="194.29" r="4.71" transform="rotate(-1.26 -1503.533 2364.617)"/><path class="cls-18" d="M227.69 166.81a1.34 1.34 0 00.46-2.65 13.74 13.74 0 00-3.86-.08 10.81 10.81 0 00-6.91 3.37 1.35 1.35 0 002 1.81c2.08-2.26 5.38-2.91 8.31-2.45zm-45.18.19c2.8-1 6.13-1.13 8.65.7a1.35 1.35 0 001.58-2.18 10.8 10.8 0 00-7.45-1.88 13.7 13.7 0 00-3.76.86 1.34 1.34 0 001 2.5z" transform="translate(-48.12 -36.67)"/><path class="cls-6" d="M238.92 171.74s.1 2.39.19 4.61 5.27 7.3 7 7.23l-.33-8.11s.57-3.75 5.16-3.94c13.42-16.77 10.51-42.4-5.08-55.11s-47.91-12.24-53.47-10.13-11 11.92-11 11.92-5-4.08-9.31-1.67-18.07 31-17.78 38 14.42 20.33 14.42 20.33c4.59-.19 5.47 3.5 5.47 3.5l.21 5c1.7-.07 2.56-2.39 2.47-4.61l-.19-4.61c13.88-6.86 18.69-26.12 18.69-26.12s20.63 28.03 43.55 23.71z" transform="translate(-48.12 -36.67)"/><path class="cls-20" d="M258.85 139.49a39.27 39.27 0 00-7.77-17.74c-12.4 13.63-34.28 25.14-61.06-14.13a21.48 21.48 0 00-3.24 3c11.22 20.38 37 54.92 72.07 28.87z" transform="translate(-48.12 -36.67)"/><path class="cls-18" d="M238.92 171.74s.1 2.39.19 4.61 5.27 7.3 7 7.23l-.33-8.11s.57-3.75 5.16-3.94a39.53 39.53 0 008.47-22.46s-23.88 23.65-63.47-5.61c0 0-11.12 26.54-34.75 23.35a104.4 104.4 0 007.56 8.08c4.59-.19 5.47 3.5 5.47 3.5l.21 5c1.7-.07 2.56-2.39 2.47-4.61l-.19-4.61c13.88-6.86 18.69-26.12 18.69-26.12s20.6 28.01 43.52 23.69z" transform="translate(-48.12 -36.67)"/><path class="cls-24" d="M201.07 190.62s0 3.57-.94 4.16-3.73.43-2.89-1.5a6.7 6.7 0 012.87-3.27c.52-.18 1.04.11.96.61z" transform="translate(-48.12 -36.67)"/><path class="cls-18" d="M194.49 199.25a8.71 8.71 0 1017.41-.4 1.51 1.51 0 00-1.54-1.47l-14.37.33a1.51 1.51 0 00-1.47 1.54z" transform="translate(-48.12 -36.67)"/><path d="M197.89 206a8.71 8.71 0 0010.07.39 5.42 5.42 0 00-5-3.1 5.49 5.49 0 00-5.07 2.71z" transform="translate(-48.12 -36.67)" fill="#e4414f" fill-rule="evenodd"/><path class="cls-5" d="M210.54 197.4l-13.54.3c-.18 1.5.55 3 1.56 3.3 1.23.37 11-.11 11.68-.89a5.18 5.18 0 00.3-2.71z" transform="translate(-48.12 -36.67)"/><path class="cls-18" d="M223.51 174.4a3.47 3.47 0 012.23.77 1.43 1.43 0 00.93-.73.56.56 0 111 .5 2.43 2.43 0 01-1.12 1.09 2.59 2.59 0 001.44-.91.55.55 0 11.87.69 3.62 3.62 0 01-1.62 1.16 3.43 3.43 0 001.66-.56.56.56 0 11.61.93 4.42 4.42 0 01-1.72.68l-.77.12.05 4.22a3.5 3.5 0 01-3.45 3.53 3.5 3.5 0 01-3.54-3.45l-.06-4.55a3.5 3.5 0 013.49-3.49zm-35.99.39a3.47 3.47 0 00-2.21.83 1.43 1.43 0 01-.95-.71.56.56 0 00-1 .52 2.42 2.42 0 001.14 1.07 2.6 2.6 0 01-1.46-.87.55.55 0 10-.85.71 3.57 3.57 0 001.65 1.12 3.45 3.45 0 01-1.67-.52.56.56 0 00-.59.95 4.48 4.48 0 001.73.63l.77.1v4.22a3.5 3.5 0 003.53 3.45 3.5 3.5 0 003.45-3.53v-4.55a3.5 3.5 0 00-3.54-3.42z" transform="translate(-48.12 -36.67)"/><path class="cls-6" d="M172.08 338.44s27.77 7.14 80.48-.29c0 0 1.31.63 1.53 1.33a44.61 44.61 0 011 7.05 10 10 0 01-1.15 4.13c-.77 1.14-38.1 7.37-58.09 4.07s-22-3.56-22.73-5.21-1.76-8.57-1.76-9.72.72-1.36.72-1.36z" transform="translate(-48.12 -36.67)"/><path class="cls-11" d="M144.82 298.85l-2.16 1.67-1.07 2.1-13.44-39.12-19.65 6.74s14.71 69.21 16.91 72.5 9.66 9.66 18.67 7.91 23.86-31.1 23.86-31.1.29-21.82-23.12-20.7z" transform="translate(-48.12 -36.67)"/><path class="cls-12" d="M141.58 302.63l-13.43-39.13-19.64 6.74s.11.63 3.36 15.38c0-4.27 15.35-6.07 18.65 1.47 1.43 3.27 14.9 30.51 16.23 32s-5.17-16.52-5.17-16.52zm-19.14 29.85c4.07 17 19.31 11.56 20.53 10.34s11.22-6.53 15.31-21.84a25.73 25.73 0 00-3.08-20.8c12.93 4.63 12.74 19.37 12.74 19.37s-14.86 29.34-23.86 31.1-16.47-4.61-18.67-7.91c-.48-.74-1.57-4.62-2.97-10.27z" transform="translate(-48.12 -36.67)"/><path class="cls-12" d="M136.83 246l2.23 1.07a19.05 19.05 0 01-.53 2.91c-.44 1.74-.45 3.62-.67 7.52s-.09 6-3.48 10.08-10.83 9.51-12.34 9.91-5 .45-8.84-2.69-10.34-8.76-13.62-11.52a33.9 33.9 0 01-4.72-4.63l4.5-4.3s1.82 1 2.61.58-.83-2.33-.83-2.33v-10s.45.19.55-.2-2.76-3.73-3-4.6z" transform="translate(-48.12 -36.67)"/><path class="cls-11" d="M110.77 223.64s-2.74-1.75-3.7-1.55-4.08 2.44-4 4 1.41 7.39 5.09 8.65 2.61-11.1 2.61-11.1z" transform="translate(-48.12 -36.67)"/><path class="cls-17" d="M137 223.66a.42.42 0 01.4.44l-.5 8.74a.42.42 0 01-.44.4.42.42 0 01-.4-.44l.5-8.74a.42.42 0 01.44-.4zm-.62 10.53a.42.42 0 01.4.44l-.2 3.47a.42.42 0 01-.44.4.42.42 0 01-.4-.44l.2-3.47a.42.42 0 01.44-.4zm-.29 5.06a.42.42 0 01.4.44l-.2 3.47a.42.42 0 01-.44.4.42.42 0 01-.4-.44l.2-3.47a.42.42 0 01.44-.4z" transform="translate(-48.12 -36.67)"/><path class="cls-18" d="M133.57 216.79l-23.49-1.35a3.81 3.81 0 00-4 3.58l-2.87 50.06a3.82 3.82 0 003.58 4l23.49 1.34a3.82 3.82 0 004-3.58l2.87-50.06a3.81 3.81 0 00-3.58-3.99z" transform="translate(-48.12 -36.67)"/><path class="cls-19" d="M133.94 221.22l-24.74-1.42a1.67 1.67 0 00-1.76 1.57L105 264.48a1.67 1.67 0 001.56 1.76l24.74 1.42a1.67 1.67 0 001.76-1.57l2.47-43.1a1.67 1.67 0 00-1.59-1.77z" transform="translate(-48.12 -36.67)"/><path class="cls-20" d="M124 269.47l-10.33-.59a1.13 1.13 0 00-1.19 1.06 1.13 1.13 0 001.06 1.19l10.33.59a1.13 1.13 0 001.19-1.06 1.13 1.13 0 00-1.06-1.19zm.88-51.18l-6.34-.36a.69.69 0 00-.73.65.69.69 0 00.65.73l6.34.36a.69.69 0 00.73-.65.69.69 0 00-.65-.73z" transform="translate(-48.12 -36.67)"/><path class="cls-11" d="M136.16 242.8s-4.38.08-5.34.48-1.58 2-1.23 5.19 2.91 3.28 5.14 3.1 4.22-3 4.33-4.48-1.11-4.42-2.9-4.29zm-32.46-10.33s3.1 1.84 3.72 2.91a4.07 4.07 0 01-.21 3.84 4.12 4.12 0 01-3.38 2.06 8.34 8.34 0 01-4.54-2.43c-.62-.88-1.4-1.8-.56-3.32s3.33-4.06 4.97-3.06zm4.24 15.81s-6.3-5.39-7.21-5.88a2.51 2.51 0 00-3.15.91c-.64 1.12-1.68 2.63-.66 4.64s5.81 6.27 6.86 6.75a4 4 0 004-.86c.78-.99 1.87-4.03.16-5.56zm-2.05 10.15s-7.34-4.6-8-5a2.47 2.47 0 00-3 1.1c-.78 1.3-1.05 3.08 0 4.11s7.36 4.83 8.46 5 2.19-.88 2.59-2 .69-2.58-.05-3.21zm173.66 120.38c-4.63 3.54-7.36 11.17-15.53 1.91s-10.08-12.54-10.08-12.54-4.29.14-5.11.14-1.91-2.18-.55-3.27.89-.27.89-.27c-3.91-1.81-1.84-3.8-.68-5 0 0-2.45-.68-2.18-2.32s2.86-1.91 2.86-1.91-2.66-.68-1.29-2.59c.46-.65 4.56-1.16 7.42-1.15 2.3 0 3.38.23 4.46 1.88l8.9 13.71 3.82-3.54z" transform="translate(-48.12 -36.67)"/><path class="cls-12" d="M257.36 366.28s5.34 8.14 9.43 11.94c1.46 1.36 2.76 2.15 3.6 1.83a18.13 18.13 0 002.43-1.56c1.25-.88 2.9-2.11 4.86-3.62l1.87 4a20.4 20.4 0 00-2.13 2c-2.63 2.7-5 5.67-8.85 3.78a15.61 15.61 0 01-4.55-3.82c-8.18-9.27-10.08-12.54-10.08-12.54s-4.29.14-5.11.14c-.54 0-1.2-.95-1.19-1.91a7 7 0 001.49.11c2.21-.23 8.23-.35 8.23-.35zm43.56-33.57c2.95-3.69-9.83-24.09-13-26.8-2.71-2.29 8.73-12.55 19.77-20.56-2.09-3.07-3.48-5.1-3.48-5.1a51.84 51.84 0 00-13.93 11 128.7 128.7 0 00-10.73 13.87c5.55 6.27 19.68 22.27 20.73 23.85a4.17 4.17 0 01.64 3.73zm13.03 15c-10.92 8.14-29.53 22-36.29 27.1l1.79 3.78c11-7.86 31.17-22.79 39.61-31.85 7.15-7.68 9.67-15.74 9.73-22.37-1.38 8.28-6.11 16.83-14.84 23.34z" transform="translate(-48.12 -36.67)"/><path class="cls-29" d="M371.25 198.78s-25.77 3.54-43 11.7-7.77 18.69-7.77 18.69h50.81z" transform="translate(-48.12 -36.67)"/><path class="cls-30" d="M358.75 201c-5.21 1.09-11.49 2.6-17.71 4.55a4.71 4.71 0 012.07 2.68c.74 3.72-6.42 6.53-7.1 11.69-.44 3.31-1 5.12.79 9.24h29.31c-3.13-7.47-5.14-13-5.26-17.19a41.62 41.62 0 00-2.1-10.97z" transform="translate(-48.12 -36.67)"/><path class="cls-29" d="M371.25 198.78s25.77 3.54 43 11.7 7.77 18.69 7.77 18.69h-50.77z" transform="translate(-48.12 -36.67)"/><path class="cls-30" d="M385.27 201.35c5.22 1.13 11.34 2.65 17.33 4.6a4.22 4.22 0 00-1.6 2.31c-1.15 5.83 11.82 6.12 5.94 20.92H378c3.12-7.47 5.14-13 5.26-17.19a41.07 41.07 0 012.01-10.64z" transform="translate(-48.12 -36.67)"/><path class="cls-10" d="M390.69 178.14l-.56 11.74v27.71c0 1.77 1.83 4.31 5.06 6.53-2.83 2.76-8.09 21.13-13.47 24.92h-20.13c-5.38-3.79-10.64-22.16-13.47-24.92 3.23-2.22 5.06-4.76 5.06-6.53v-27.71l-.56-11.74s9.37 1.51 19 3.64c9.7-2.13 19.07-3.64 19.07-3.64z" transform="translate(-48.12 -36.67)"/><path class="cls-6" d="M353.18 215.31l-46.08 20.08a322.75 322.75 0 00-6.45 64.3l1 15.63q.46 6.37.93 12.27l.19 8s-3.28 62.55-2.51 65.24 7 9.09 7 9.09c-.25 1.7-.52 3.51-.81 5.4 11.29 4.25 32.28 9.72 65.13 9.47 32.85.25 53.83-5.22 65.13-9.47-.29-1.89-.56-3.71-.81-5.4 0 0 6.27-6.41 7-9.09s-2.51-65.24-2.51-65.24l.18-8q.46-5.91.93-12.27l1-15.62a322.75 322.75 0 00-6.45-64.3l-46.08-17.8c.16 21.65-36.79 24.69-36.79-2.29z" transform="translate(-48.12 -36.67)"/><path class="cls-18" d="M353.18 215.31l-38 16.58c16.92 17.91 33.25 33.72 33.25 33.72l6.21 5.53s-1.41-27-1.72-30.12c-.18-1.9 3.48-6.92 6.43-10.61-3.66-3.16-6.13-8.12-6.13-15.09zm-6.05 208.51c-1.36-3.56.76-6.77 7.52-8.43 25.19-6.21 29.77-16.09 29.77-24.58v-52.95c0-9.39-4.08-13.06-10.82-13.06H343s-28.08-28.17 4.49-28.17 37.56.82 37.56-4.7.31-35.92 1.22-38.88 4.9-10 4-11c-.45-.5-6.92-4.27-13.46-8 7.25-1.88 13.36-7.61 13.36-16.42l46.08 17.8a322.76 322.76 0 016.45 64.3l-1 15.62q-.46 6.37-.93 12.27l-.18 8s3.28 62.55 2.51 65.24-7 9.09-7 9.09c.25 1.7.52 3.51.81 5.4-11.29 4.25-32.28 9.72-65.13 9.47-9.18.03-17.35-.34-24.65-1z" transform="translate(-48.12 -36.67)"/><path class="cls-5" d="M353.18 215.31l-10.35 4.51a29.09 29.09 0 007.43 16.59c11.12 12 31.26 11.67 42.67.28a26.35 26.35 0 007.54-15.11l-10.34-4c0 21.67-36.95 24.71-36.95-2.27z" transform="translate(-48.12 -36.67)"/><path d="M353.18 215.31l-10.35 4.51a29.09 29.09 0 007.43 16.59 26.64 26.64 0 003.06 2.81c1-2.39 3.73-6 6-8.83-3.66-3.16-6.13-8.12-6.13-15.09zM388 240.59a28.42 28.42 0 004.89-3.9 26.35 26.35 0 007.54-15.11l-10.34-4c0 8.81-6.11 14.53-13.36 16.42 4.43 2.53 8.78 5.05 11.27 6.59z" transform="translate(-48.12 -36.67)" fill="#e3edf2" fill-rule="evenodd"/><path class="cls-5" d="M388.64 424.38c23.28-1.32 38.94-5.6 48.14-9.07-.29-1.89-.56-3.71-.81-5.4 0 0 6.27-6.41 7-9.09s-2.51-65.24-2.51-65.24l.19-8q.46-5.9.92-12.27l1-15.62a322.84 322.84 0 00-6.45-64.3l-26.59-11.67c-6.42 11-19.13 35.22-19.83 54.76l-1.93 3.4v142.3z" transform="translate(-48.12 -36.67)"/><path class="cls-9" d="M399.2 423.53c17.55-1.82 29.85-5.31 37.59-8.22-.29-1.89-.56-3.71-.81-5.4 0 0 6.27-6.41 7-9.09s-2.51-65.24-2.51-65.24l.19-8v-.54c-7-18.92.32-33-3.47-43.2 4.42-1.24-2.48-5.62 4.47-8a304.09 304.09 0 00-5.55-40.49l-26.59-11.67c-2 3.46-4.65 8.23-7.34 13.74 7.59 6.79 15.6 19.63 16 43.64v1.81c.23 23.23 1.82 77.36.09 96-2.18 23.51-8.78 39-19.64 42.15-1.25.44-.96 1.31.57 2.51z" transform="translate(-48.12 -36.67)"/><path class="cls-18" d="M401.62 423.27c16.27-1.88 27.79-5.18 35.17-8-.29-1.89-.56-3.71-.81-5.4a167.43 167.43 0 01-33.47 6.21c-8.42.63-5.82 3.92-.89 7.19z" transform="translate(-48.12 -36.67)"/><path class="cls-29" d="M422.06 229.18s-32 31.52-32.61 57.37c0 0 0 2.65-1.59 2.79v-13c0-4.54-.49-22.63 7.84-34.61s7.64-21.46 1.77-23.35l5.87-2.84z" transform="translate(-48.12 -36.67)"/><path class="cls-30" d="M394.5 267.33c-2.92 6.39-4.91 13-5.05 19.22 0 0 0 2.65-1.59 2.79v-13c0-4.54-.49-22.63 7.84-34.61s7.64-21.46 1.77-23.35l5.87-2.84 4.59 3.34c1.35 3.81.6 9.65-6.3 20-6.48 9.71-9.47 20.53-7.13 28.45z" transform="translate(-48.12 -36.67)"/><path class="cls-5" d="M353.86 424.38c-23.28-1.32-38.94-5.6-48.14-9.07.29-1.89.56-3.71.81-5.4 0 0-6.27-6.41-7-9.09s2.47-65.24 2.47-65.24l-.19-8q-.46-5.9-.92-12.27l-1-15.62a322.75 322.75 0 016.46-64.3l26.59-11.67c6.42 11 19.13 35.22 19.83 54.76l1.93 3.4v142.3z" transform="translate(-48.12 -36.67)"/><path class="cls-9" d="M343.31 423.53c-17.55-1.82-29.85-5.31-37.59-8.22.29-1.89.56-3.71.81-5.4 0 0-6.27-6.41-7-9.09s2.47-65.24 2.47-65.24l-.19-8v-.54A390 390 0 00318.42 266s.42-1.93 1.41 1.33 2.12 88.08 4.3 111.6 8.78 39 19.65 42.15c1.34.38 1.06 1.25-.47 2.45z" transform="translate(-48.12 -36.67)"/><path class="cls-29" d="M320.45 229.18s32 31.52 32.61 57.37c0 0 0 2.65 1.59 2.79v-13c0-4.54.49-22.63-7.84-34.61s-7.64-21.46-1.77-23.35l-5.87-2.84z" transform="translate(-48.12 -36.67)"/><path class="cls-30" d="M348.89 269.35a47.91 47.91 0 014.17 17.21s0 2.65 1.59 2.79v-13c0-4.54.49-22.63-7.84-34.61s-7.64-21.46-1.77-23.35l-5.87-2.84-2 1.47c-4.56 7.2 1.33 15.82 5.35 21.84 7.03 10.58 9.94 22.45 6.37 30.49z" transform="translate(-48.12 -36.67)"/><path class="cls-18" d="M340.89 423.27c-16.27-1.88-27.79-5.18-35.17-8 .29-1.89.56-3.71.81-5.4a167.39 167.39 0 0033.47 6.25c8.42.59 5.82 3.88.89 7.15z" transform="translate(-48.12 -36.67)"/><path class="cls-9" d="M425.95 289.76s9.38 36.44 25.24 61.68c4.92 7.83 11.64 14 17.78 12.72 46.1-9.51-13.62-122.71-36.64-131.62 0 .01-20.09 1.83-6.38 57.22z" transform="translate(-48.12 -36.67)"/><path class="cls-32" d="M427.58 295.57c.74 2.52 1.73 5.74 3 9.44a339.14 339.14 0 0137.42-26c-1.41-2.78-2.86-5.51-4.34-8.17a355.84 355.84 0 00-36 24.73zm6 18.27A352.52 352.52 0 01472 287.32c1.3 2.83 2.54 5.69 3.7 8.55a336.15 336.15 0 00-38.61 27 201.5 201.5 0 01-3.5-9.03z" transform="translate(-48.12 -36.67)"/><path d="M335.83 157.65c-.28 0-.55 0-.82.09a11.13 11.13 0 109.12 2.84c.07 3.3-.72 7.32-4.92 7.45l.54-6.39c.2-2.64-2.14-3.94-3.92-3.99zm80.17 5.22c.27.06.54.12.8.19a11.13 11.13 0 11-9.42 1.63c-.49 3.26-.24 7.35 3.92 8l.3-6.41c.1-2.56 2.6-3.6 4.4-3.41z" transform="translate(-48.12 -36.67)" fill="#e8685b" fill-rule="evenodd"/><path class="cls-11" d="M379.51 104.79A38.21 38.21 0 00339 140.34l-2.25 34.58a38.21 38.21 0 0035.55 40.49 38.21 38.21 0 0040.49-35.54l2.25-34.58a38.21 38.21 0 00-35.53-40.5z" transform="translate(-48.12 -36.67)"/><path class="cls-12" d="M379.51 104.79A38.21 38.21 0 00339 140.33l-.5 7.64 6.29 3 .24 1.88a13.93 13.93 0 019.39-4.49c6-.33 30.78-1.39 36.74-1.14s8.25 1.8 10.37 6.94 3.78 7.64 3.47 11.84.41 7 1.88 8.57c0 0-.62 45-41.56 39.67a37.81 37.81 0 007 1.12 38.21 38.21 0 0040.49-35.54l2.25-34.58a38.21 38.21 0 00-35.55-40.45z" transform="translate(-48.12 -36.67)"/><path class="cls-5" d="M364.19 186a9.86 9.86 0 0019.61 2.05 1.71 1.71 0 00-1.52-1.87l-16.19-1.69a1.71 1.71 0 00-1.87 1.52z" transform="translate(-48.12 -36.67)"/><path class="cls-5" d="M367 194.05a9.87 9.87 0 0011.26 1.88 6.13 6.13 0 00-5.23-4.2 6.22 6.22 0 00-6.03 2.32zm15.48-7.79l-15.22-1.59c-.42 1.66.18 3.44 1.27 3.93 1.33.59 12.37 1.46 13.24.68.44-.4.63-1.74.71-3.02z" transform="translate(-48.12 -36.67)"/><circle class="cls-21" cx="395.67" cy="184.61" r="5.01" transform="rotate(-85.19 351.652 192.454)"/><circle class="cls-21" cx="352.72" cy="180.99" r="5.01" transform="rotate(-85.2 308.696 188.838)"/><path class="cls-18" d="M352.19 158.15a1.35 1.35 0 01-1.05-2.49c3.7-1.61 8.5-1.51 11.87.82a1.35 1.35 0 11-1.54 2.23c-2.73-1.9-6.31-1.71-9.28-.56zm48.54 3.16c-2.79-1.56-6.32-2.17-9.28-.65a1.35 1.35 0 11-1.24-2.41 12.65 12.65 0 0111.87.72 1.35 1.35 0 01-1.36 2.34zm-4.43 4.27a3.3 3.3 0 013.07 3.5l-.28 4.28a3.3 3.3 0 01-3.49 3.07 3.3 3.3 0 01-3.07-3.5l.28-4.28a3.3 3.3 0 013.49-3.07zM356 163a3.3 3.3 0 00-3.49 3.07l-.28 4.28a3.3 3.3 0 003.07 3.5 3.3 3.3 0 003.49-3.07l.28-4.28A3.3 3.3 0 00356 163z" transform="translate(-48.12 -36.67)"/><path class="cls-20" d="M362.19 131.59c-4.09-.27-12.13 1.16-12.67 9.33s-2.5 14.56-7.72 14.22l-.42 6.41c-.23 3.58-.82 7.19-4.2 7 .5-7.71-1.65-10.9-1.65-10.9s.67-10.32 1.26-19.34 3.91-21 16.29-28.52a46 46 0 0152 3.38c11.3 9.09 13 21.37 12.46 30.39s-1.26 19.34-1.26 19.34-2.55 2.88-3.05 10.59c-3.38-.22-3.5-3.87-3.26-7.46s.42-6.41.42-6.41c-5.22-.34-6.34-6.92-5.81-15.1s-7.26-10.63-11.35-10.9z" transform="translate(-48.12 -36.67)"/><path class="cls-6" d="M409 116.88c4.4 4.85 9.6 10.75 10.11 12.36.65 2.06-.7 6.58-1.56 9.31-2.89 9-7.21 21.06-7.21 21.06-5.22-.34-6.34-6.92-5.81-15.1.39-6.06-3.79-9-7.64-10.19l.4-16.56zM348.66 113c-5 4.23-10.91 9.41-11.62 10.94-.91 2-.16 6.62.34 9.44 1.7 9.32 4.42 21.82 4.42 21.82 5.22.34 7.19-6 7.72-14.22.4-6.06 4.92-8.41 8.9-9.11l1.75-16.47z" transform="translate(-48.12 -36.67)"/><path class="cls-5" d="M459.05 314.38s8.67-2.2 10.1-1.43 10.09 13.72 11.74 17.89 2.74 22.49.33 26.67-10.22 10.09-16.68 9.21-17.67-3.4-19.64-5.16-3.6-9.44-2.46-15.8 16.61-31.38 16.61-31.38z" transform="translate(-48.12 -36.67)"/><path class="cls-11" d="M431.62 282.23l-6.54 7.12s19.88 60.89 21.86 64.44 11.3 7.51 16.67 3.07 8.91-15.56 8.93-21.53-10.1-19.46-19.87-41-21.05-12.1-21.05-12.1z" transform="translate(-48.12 -36.67)"/><path class="cls-12" d="M431.62 282.23l-6.54 7.12s19.88 60.89 21.86 64.44 11.3 7.51 16.67 3.07c3.1-2.56 5.59-7.35 7.14-12.08-5.42 9.76-16.83 8.81-19.56 6.68s-10.94-39.1-10.33-41.14 6.84-8 9.49-8 9.35 6.24 9.35 6.24c-2.26-4.29-4.66-9-7-14.28-9.8-21.53-21.08-12.05-21.08-12.05z" transform="translate(-48.12 -36.67)"/><path class="cls-12" d="M411.08 263.72l-3 1.63a26.14 26.14 0 00.93 4c.73 2.36.88 4.94 1.46 10.28s.55 8.28 5.51 13.61 15.56 12.29 17.66 12.74 6.89.26 12-4.32 13.59-12.78 17.9-16.8a46.74 46.74 0 006.15-6.7l-6.5-5.6s-2.43 1.52-3.54 1 1-3.26 1-3.26l-.65-13.79s-.6.29-.77-.23 3.53-5.32 3.82-6.54z" transform="translate(-48.12 -36.67)"/><path class="cls-11" d="M445.3 231.1s3.64-2.6 5-2.39 5.78 3.06 5.75 5.24-1.42 10.26-6.39 12.25-4.36-15.1-4.36-15.1z" transform="translate(-48.12 -36.67)"/><path class="cls-17" d="M409.27 233a.58.58 0 00-.51.64l1.31 12a.58.58 0 00.64.51.58.58 0 00.51-.64l-1.31-12a.58.58 0 00-.64-.51zm1.58 14.42a.58.58 0 00-.51.64l.52 4.76a.58.58 0 00.64.51.58.58 0 00.51-.64l-.52-4.76a.58.58 0 00-.64-.51zm.76 6.94a.58.58 0 00-.51.64l.52 4.76a.58.58 0 00.64.51.58.58 0 00.51-.64l-.52-4.76a.58.58 0 00-.64-.51z" transform="translate(-48.12 -36.67)"/><path class="cls-18" d="M413.48 223.31l32.18-3.52a5.25 5.25 0 015.77 4.63l7.51 68.58a5.25 5.25 0 01-4.63 5.77l-32.18 3.53a5.25 5.25 0 01-5.77-4.63l-7.51-68.59a5.25 5.25 0 014.63-5.77z" transform="translate(-48.12 -36.67)"/><path class="cls-19" d="M413.28 229.43l33.9-3.71a2.3 2.3 0 012.52 2l6.47 59.06a2.29 2.29 0 01-2 2.52l-33.93 3.7a2.3 2.3 0 01-2.52-2l-6.47-59a2.3 2.3 0 012.03-2.57z" transform="translate(-48.12 -36.67)"/><path class="cls-20" d="M430.45 295l14.16-1.55a1.55 1.55 0 011.71 1.37 1.55 1.55 0 01-1.37 1.71l-14.16 1.55a1.56 1.56 0 01-1.71-1.37 1.56 1.56 0 011.37-1.71zm-4.93-70.25l8.69-1a1 1 0 011.05.84 1 1 0 01-.84 1.05l-8.69 1a1 1 0 01-1-.84 1 1 0 01.79-1.05z" transform="translate(-48.12 -36.67)"/><path class="cls-11" d="M411.76 259.24s6-.2 7.37.28 2.32 2.65 2.06 7-3.77 4.72-6.84 4.63-6-3.86-6.27-5.85 1.22-6.12 3.68-6.06zm43.88-16.51s-4.14 2.74-4.9 4.27a5.6 5.6 0 00.57 5.27 5.66 5.66 0 004.79 2.58c1.75-.08 5.29-2.42 6.07-3.67s1.8-2.58.53-4.61-4.88-5.34-7.06-3.84zm-4.7 22.02s8.27-7.86 9.49-8.59a3.46 3.46 0 014.39 1c1 1.49 2.49 3.5 1.23 6.34s-7.53 9-8.95 9.77-4.46.4-5.57-.9-2.82-5.37-.59-7.62zm3.55 13.81s9.76-6.84 10.69-7.4a3.4 3.4 0 014.2 1.3c1.16 1.73 1.66 4.16.28 5.65s-9.77 7.17-11.27 7.48-3.07-1.05-3.71-2.57-1.16-3.53-.19-4.46z" transform="translate(-48.12 -36.67)"/><path class="cls-5" d="M314.9 293.62c-6.57 31.06-17.08 39-23.72 64.26-1 3.88 16 59.93 16 59.93L280.41 419l-4.69-.82s-14.55-46.46-16-54.82a52.94 52.94 0 011.83-25.92c.11-.35.23-.69.35-1 6.26-17.45 12.7-38.88 19.16-60.92 4.48-15.29 11.46-33.55 25.21-40.11.02-.02 20.16 1.07 8.63 58.21z" transform="translate(-48.12 -36.67)"/><path class="cls-9" d="M314.9 293.62c-6.57 31.06-17.08 39-23.72 64.26-.91 3.46 12.55 48.54 15.44 58.13l-5.66-.62s-18-54-19.8-55.48-3.67-1.12-2-2.76 37-86.13 37.81-89.25c.48-2 1.11-2.43 1.51-2.51a163.67 163.67 0 01-3.58 28.23z" transform="translate(-48.12 -36.67)"/><path class="cls-18" d="M348.52 101.47c2.12-4.5 8.05-14.66 19.12-16.61 14.31-2.52 16.42 6.5 16.42 6.5s5.87-5.37 10.13-3.45 5.11 8.39 5.11 8.39 6.66-2.36 9.14.93c1.63 2.16 2.34 7.2 2.63 10.38 8.63-14.41 21.76 17.19 4 24.54-6.17 26.75-19.84 14.92-13.94 7-22.71-2.77-40.46 14.61-59.3 3.09-21.55-13.24-14.34-52.74 6.69-40.77z" transform="translate(-48.12 -36.67)"/><path class="cls-20" d="M418.52 104.72a10 10 0 012.94 3.41c-11.35 16.79-37.88 30.47-63 27.37-15.8-1.95-24.7-10.85-29.63-19.09.29-9 4.48-16.57 11.48-17.14 5.29 11.5 15.1 22.42 33.34 23.33 25.24 1.26 38.55-9.76 44.87-17.88z" transform="translate(-48.12 -36.67)"/><path class="cls-24" d="M375.68 178.11s-.23 3.56-1.21 4.09-3.75.19-2.79-1.68a6.72 6.72 0 013.08-3.07c.54-.17 1.03.16.92.66z" transform="translate(-48.12 -36.67)"/><path class="cls-18" d="M414.93 132.44a.77.77 0 11-.45-1.47s12.61-3.69 10.89-19.38a.77.77 0 111.53-.16c1.87 16.96-11.9 21-11.97 21.01zM343.34 141a.77.77 0 11-.45 1.47c-.05 0-19.15-5.61-16.56-29.13a.77.77 0 111.53.16c-2.44 22.29 15.43 27.5 15.48 27.5z" transform="translate(-48.12 -36.67)"/><rect x="271.42" y="252.95" width="27.76" height="4.49" rx="1.43" ry="1.43" fill="#daa38a"/><path d="M306.38 310.47a301 301 0 00-29.12-22q1.37-4.6 2.74-9.26a324.33 324.33 0 0128.6 21.09c-.54 2.57-1.35 6.27-2.22 10.19zm-4.45 19.82s1-4.52 2.31-10.24a312.18 312.18 0 00-29.71-22.49q-1.41 4.68-2.82 9.23a287.92 287.92 0 0130.23 23.5z" transform="translate(-48.12 -36.67)" fill="#8f7260" fill-rule="evenodd"/><path class="cls-32" d="M306.38 310.47q-2.55-2.2-5.13-4.31c1.26-3 2.51-6 3.71-8.86q1.83 1.47 3.64 3c-.54 2.57-1.35 6.27-2.22 10.19zm-4.45 19.82a206.89 206.89 0 00-8-6.86l3.74-8.84c2.19 1.77 4.37 3.59 6.53 5.46-1.2 5.72-2.26 10.24-2.26 10.24z" transform="translate(-48.12 -36.67)"/><path d="M670 409H84a12.12 12.12 0 00-12.05 12A12.12 12.12 0 0084 433.13h40.8a6.73 6.73 0 016.71 6.71 6.73 6.73 0 01-6.71 6.71h-14.91a8.42 8.42 0 00-8.39 8.39 8.42 8.42 0 008.39 8.39h532.89a8.41 8.41 0 008.39-8.39 8.41 8.41 0 00-8.39-8.39H631a6.73 6.73 0 01-6.71-6.71 6.73 6.73 0 016.71-6.71h39A12.12 12.12 0 00682.05 421 12.12 12.12 0 00670 409zm-6.29 54.38a8.08 8.08 0 01-8.06-8.05v-.67a8.08 8.08 0 018.06-8.05 8.08 8.08 0 018.05 8.05v.67a8.08 8.08 0 01-8.05 8.05z" transform="translate(-48.12 -36.67)" fill="#fcc33b"/><path class="cls-3" d="M308 52.43h-4a2.19 2.19 0 00-1.61-1.85l2.4-3.58h.21a1 1 0 10-1.06-1 1 1 0 00.18.55l-2.61 3.81a5.19 5.19 0 00-1.85 0l-4.7-6.86a.93.93 0 00.16-.52 1 1 0 10-1 1h.15l4.57 6.66a2.19 2.19 0 00-1.61 1.85h-4a6.88 6.88 0 00-7.06 6.68v7.35a6.76 6.76 0 005.29 6.47c0 .54 0 1.72.41 1.72s1.08-.92 1.47-1.51h14.57c.39.59 1.07 1.51 1.47 1.51s.45-1.18.41-1.72a6.76 6.76 0 005.21-6.53v-7.35a6.88 6.88 0 00-7-6.68zm-1.44 16.81h-15.68a1.35 1.35 0 01-1.39-1.31V57.65a1.35 1.35 0 011.39-1.31h15.63a1.35 1.35 0 011.39 1.31v10.28a1.35 1.35 0 01-1.39 1.31zm4.34-2.33a1.56 1.56 0 111.64-1.55 1.6 1.6 0 01-1.69 1.55zm0-6a1.56 1.56 0 111.64-1.55 1.6 1.6 0 01-1.69 1.53zm153.74 88.35h-2.51a1.36 1.36 0 00-1-1.15l1.54-2.25h.11a.62.62 0 10-.66-.62.6.6 0 00.11.34l-1.62 2.42a3.23 3.23 0 00-1.15 0l-2.93-4.27a.58.58 0 00.1-.32.64.64 0 10-.64.6h.09l2.84 4.15a1.36 1.36 0 00-1 1.15h-2.51a4.28 4.28 0 00-4.39 4.16V158a4.21 4.21 0 003.29 4c0 .34 0 1.07.26 1.07s.67-.57.92-.94h9.07c.24.37.66.94.92.94s.28-.73.26-1.07a4.21 4.21 0 003.29-4v-4.57a4.28 4.28 0 00-4.39-4.17zm-.9 10.46H454a.84.84 0 01-.86-.82v-6.39a.84.84 0 01.86-.82h9.73a.84.84 0 01.86.82v6.39a.84.84 0 01-.84.83zm2.7-1.45a1 1 0 111-1 1 1 0 01-.99 1.01zm0-3.75a1 1 0 111-1 1 1 0 01-.99 1.01z" transform="translate(-48.12 -36.67)"/><path d="M112.26 233.26l-1.55 21.1a2.3 2.3 0 002.12 2.46l11.16.82a2.3 2.3 0 002.46-2.12l1.16-15.81a7.26 7.26 0 00-.92-3.77l-1.42-2.31a4.58 4.58 0 00-3.21-2l-7.33-.54a2.3 2.3 0 00-2.47 2.17zm9.74-.83a3.79 3.79 0 012.62 1.59l1.42 2.31a6.49 6.49 0 01.81 3.32l-1.16 15.81a1.54 1.54 0 01-1.65 1.42l-11.16-.82a1.54 1.54 0 01-1.42-1.65l1.55-21.1a1.54 1.54 0 011.65-1.42z" transform="translate(-48.12 -36.67)"/><path d="M113.79 242.92l-.72 9.75a2.11 2.11 0 001.95 2.26l7.2.53a2.11 2.11 0 002.26-1.95l.72-9.75a2.11 2.11 0 00-1.95-2.26L116 241a2.11 2.11 0 00-2.21 1.92zm1.33 11.08l.31-4.26c0-.28.21-.36.45-.21a5.94 5.94 0 001.22.59.68.68 0 01.45.65l-.25 3.38a.51.51 0 01-.54.47l-1.18-.09a.5.5 0 01-.46-.53zm2.56.19l.24-3.33a.44.44 0 01.49-.42h.46a4.94 4.94 0 00.69 0 .4.4 0 01.46.44l-.25 3.43a.51.51 0 01-.54.47l-1.09-.08a.5.5 0 01-.46-.46zm2.48.18l.26-3.54a.83.83 0 01.52-.66 5.63 5.63 0 001.21-.62c.23-.16.39-.08.37.2l-.35 4.77a.51.51 0 01-.54.47l-1-.07a.5.5 0 01-.48-.5zm4.09-2.76l-.13 1.83A1.72 1.72 0 01123 255c-.26.1-.47-.12-.45-.4l.22-3a.51.51 0 01.54-.47h.47a.5.5 0 01.46.53zm.38-5.16l-.28 3.78a.51.51 0 01-.54.47h-.48a.51.51 0 01-.47-.54l.28-3.78a.51.51 0 01.54-.47h.48a.51.51 0 01.46.58zm.1-1.38a.51.51 0 01-.54.47h-.48a.51.51 0 01-.47-.54l.19-2.58a.35.35 0 01.51-.33 1.72 1.72 0 01.89 1.63l-.1 1.38zm-1.73-2.7l-.35 4.77c0 .28-.19.33-.39.15a5.66 5.66 0 00-1.2-.84.81.81 0 01-.42-.72l.26-3.51a.51.51 0 01.54-.47l1.1.08a.5.5 0 01.46.54zm-2.48-.18l-.25 3.41a.41.41 0 01-.52.37 4.71 4.71 0 00-.58-.09h-.52a.45.45 0 01-.47-.49l.25-3.34a.51.51 0 01.54-.47l1.09.08a.5.5 0 01.51.53zm-2.48-.18l-.25 3.4a.69.69 0 01-.53.59 6 6 0 00-1.2.39c-.25.11-.43 0-.41-.27l.31-4.26a.51.51 0 01.54-.47l1.08.08a.5.5 0 01.51.53zm-2.7 5.25l.17-.13a5.51 5.51 0 013.62-.87 5 5 0 013.09 1.53.78.78 0 01-.1 1.31 5 5 0 01-3.28 1.06 5.52 5.52 0 01-3.45-1.39l-.15-.15c-.08-.08-.16.07-.18.35l-.37 5c0 .28-.26.45-.5.3a1.73 1.73 0 01-.79-1.58l.72-9.75a1.73 1.73 0 011-1.45c.25-.11.47.09.45.37l-.37 5c.04.31.1.47.19.4z" transform="translate(-48.12 -36.67)"/><ellipse cx="434.41" cy="255.21" rx="4.39" ry="18.03" transform="rotate(-57.27 376.754 280.947)" fill="#ea4949"/><path class="cls-37" d="M432 258.9c-8.38-5.38-14.11-11.4-12.8-13.44-2.2 3.43 2.38 11.22 10.76 16.61s17.37 6.32 19.58 2.89c-1.27 2.04-9.13-.67-17.54-6.06z" transform="translate(-48.12 -36.67)"/><path class="cls-37" d="M439.6 247.55l-14.51 3.15a.31.31 0 01-.13-.61l14.51-3.15a.31.31 0 01.13.61z" transform="translate(-48.12 -36.67)"/><path class="cls-37" d="M442.85 262.49a.31.31 0 01-.37-.24l-3.25-14.94a.31.31 0 11.61-.13l3.25 14.94a.31.31 0 01-.24.37z" transform="translate(-48.12 -36.67)"/><path class="cls-37" d="M439.6 247.55l-14.51 3.15a.31.31 0 01-.13-.61l14.51-3.15a.31.31 0 01.13.61z" transform="translate(-48.12 -36.67)"/><path class="cls-37" d="M439.6 247.55h-.07l-15.25-.28a.31.31 0 110-.63l15.25.28a.31.31 0 01.06.62z" transform="translate(-48.12 -36.67)"/><path class="cls-37" d="M446.37 261.73a.31.31 0 01-.35-.17l-6.77-14.18a.31.31 0 01.57-.27l6.77 14.18a.31.31 0 01-.15.42z" transform="translate(-48.12 -36.67)"/><path class="cls-37" d="M434.07 256.15a.31.31 0 01-.33-.48l5.53-8.6a.31.31 0 01.53.34l-5.53 8.6a.31.31 0 01-.2.14z" transform="translate(-48.12 -36.67)"/><ellipse class="cls-37" cx="439.79" cy="246.84" rx=".86" ry="1.78" transform="rotate(-57.27 382.132 272.578)"/><path d="M439.77 244.9l-.87 1.36c-.13.2.16.62.66.94s1 .41 1.13.21l.87-1.36z" transform="translate(-48.12 -36.67)" fill="#e9f4f6"/><ellipse class="cls-37" cx="440.66" cy="245.48" rx=".44" ry="1.06" transform="rotate(-57.27 383.007 271.214)"/><path class="cls-37" d="M438.59 275.74l-1.85.4a.27.27 0 01-.32-.18l-5-13.78a.27.27 0 01.2-.35l1.85-.4a.27.27 0 01.32.18l5 13.78a.27.27 0 01-.2.35z" transform="translate(-48.12 -36.67)"/><path class="cls-37" d="M428.1 278l1.85-.4a.27.27 0 00.21-.29l2.14-16.71a.27.27 0 00-.33-.24l-1.85.4a.27.27 0 00-.21.29l-2.14 16.71a.27.27 0 00.33.24z" transform="translate(-48.12 -36.67)"/></svg>